<svg width="336" height="121" viewBox="0 0 336 121" fill="none" xmlns="http://www.w3.org/2000/svg">
<path d="M136.69 120.97C97.1591 120.97 51.7331 110.997 0.310059 85.0682L5.34917 75.0682C218.669 182.628 324.219 4.9632 325.259 3.1582L334.958 8.752C334.119 10.2168 268.306 120.972 136.688 120.972L136.69 120.97Z" fill="black"/>
<path d="M319.54 59.7101C319.142 59.7101 318.735 59.671 318.329 59.5812C315.31 58.921 313.399 55.9289 314.064 52.9132L322.7 13.5972L291.434 21.4761C288.45 22.2222 285.391 20.4175 284.637 17.4175C283.88 14.4175 285.696 11.3745 288.704 10.6206L328.743 0.530593C330.637 0.0423129 332.614 0.593095 334.008 1.94079C335.403 3.28849 335.989 5.26889 335.575 7.15959L324.997 55.3196C324.43 57.929 322.11 59.7102 319.54 59.7102L319.54 59.7101Z" fill="black"/>
</svg>
